<?xml version="1.0" encoding="utf-8"?>
<!-- Generator: Adobe Illustrator 20.0.0, SVG Export Plug-In . SVG Version: 6.00 Build 0)  -->
<svg version="1.1" id="Ebene_1" xmlns="http://www.w3.org/2000/svg" xmlns:xlink="http://www.w3.org/1999/xlink" x="0px" y="0px"
	 viewBox="0 0 120.3 56.7" style="enable-background:new 0 0 120.3 56.7;" xml:space="preserve">
<style type="text/css">
	.st0{fill:#E2001A;}
	.st1{fill:#1A171B;}
	.st2{fill:none;stroke:#1A171B;stroke-width:0.3995;stroke-miterlimit:2;}
</style>
<g>
	<polygon class="st0" points="67.9,40 71.1,40 71.1,43.3 67.9,43.3 67.9,40 	"/>
	<polygon class="st0" points="72.3,40 75.6,40 75.6,43.3 72.3,43.3 72.3,40 	"/>
	<polygon class="st0" points="76.8,40 80,40 80,43.3 76.8,43.3 76.8,40 	"/>
	<polygon class="st0" points="81.3,40 84.5,40 84.5,43.3 81.3,43.3 81.3,40 	"/>
	<polygon class="st0" points="85.7,40 89,40 89,43.3 85.7,43.3 85.7,40 	"/>
	<polygon class="st0" points="90.2,40 93.5,40 93.5,43.3 90.2,43.3 90.2,40 	"/>
	<polygon class="st0" points="67.9,35.5 71.1,35.5 71.1,38.8 67.9,38.8 67.9,35.5 	"/>
	<polygon class="st0" points="72.3,35.5 75.6,35.5 75.6,38.8 72.3,38.8 72.3,35.5 	"/>
	<polygon class="st0" points="76.8,35.5 80,35.5 80,38.8 76.8,38.8 76.8,35.5 	"/>
	<polygon class="st0" points="81.3,35.5 84.5,35.5 84.5,38.8 81.3,38.8 81.3,35.5 	"/>
	<polygon class="st0" points="85.7,35.5 89,35.5 89,38.8 85.7,38.8 85.7,35.5 	"/>
	<polygon class="st0" points="90.2,35.5 93.5,35.5 93.5,38.8 90.2,38.8 90.2,35.5 	"/>
	<polygon class="st0" points="94.7,35.5 97.9,35.5 97.9,38.8 94.7,38.8 94.7,35.5 	"/>
	<polygon class="st0" points="99.1,35.5 102.4,35.5 102.4,38.8 99.1,38.8 99.1,35.5 	"/>
	<polygon class="st0" points="67.9,31.1 71.1,31.1 71.1,34.3 67.9,34.3 67.9,31.1 	"/>
	<polygon class="st0" points="72.3,31.1 75.6,31.1 75.6,34.3 72.3,34.3 72.3,31.1 	"/>
	<polygon class="st0" points="76.8,31.1 80,31.1 80,34.3 76.8,34.3 76.8,31.1 	"/>
	<polygon class="st0" points="81.3,31.1 84.5,31.1 84.5,34.3 81.3,34.3 81.3,31.1 	"/>
	<polygon class="st0" points="85.7,31.1 89,31.1 89,34.3 85.7,34.3 85.7,31.1 	"/>
	<polygon class="st0" points="90.2,31.1 93.5,31.1 93.5,34.3 90.2,34.3 90.2,31.1 	"/>
	<polygon class="st0" points="94.7,31.1 97.9,31.1 97.9,34.3 94.7,34.3 94.7,31.1 	"/>
	<polygon class="st0" points="99.1,31.1 102.4,31.1 102.4,34.3 99.1,34.3 99.1,31.1 	"/>
	<polygon class="st0" points="103.6,31.1 106.9,31.1 106.9,34.3 103.6,34.3 103.6,31.1 	"/>
	<polygon class="st0" points="108.1,31.1 111.3,31.1 111.3,34.3 108.1,34.3 108.1,31.1 	"/>
	<polygon class="st0" points="67.9,26.6 71.1,26.6 71.1,29.8 67.9,29.8 67.9,26.6 	"/>
	<polygon class="st0" points="72.3,26.6 75.6,26.6 75.6,29.8 72.3,29.8 72.3,26.6 	"/>
	<polygon class="st0" points="76.8,26.6 80,26.6 80,29.8 76.8,29.8 76.8,26.6 	"/>
	<polygon class="st0" points="81.3,26.6 84.5,26.6 84.5,29.8 81.3,29.8 81.3,26.6 	"/>
	<polygon class="st0" points="85.7,26.6 89,26.6 89,29.8 85.7,29.8 85.7,26.6 	"/>
	<polygon class="st0" points="90.2,26.6 93.5,26.6 93.5,29.8 90.2,29.8 90.2,26.6 	"/>
	<polygon class="st0" points="94.7,26.6 97.9,26.6 97.9,29.8 94.7,29.8 94.7,26.6 	"/>
	<polygon class="st0" points="99.1,26.6 102.4,26.6 102.4,29.8 99.1,29.8 99.1,26.6 	"/>
	<polygon class="st0" points="103.6,26.6 106.9,26.6 106.9,29.8 103.6,29.8 103.6,26.6 	"/>
	<polygon class="st0" points="108.1,26.6 111.3,26.6 111.3,29.8 108.1,29.8 108.1,26.6 	"/>
	<polygon class="st0" points="112.6,26.6 115.8,26.6 115.8,29.8 112.6,29.8 112.6,26.6 	"/>
	<polygon class="st0" points="117,26.6 120.3,26.6 120.3,29.8 117,29.8 117,26.6 	"/>
	<polygon class="st0" points="67.9,44.5 71.1,44.5 71.1,47.7 67.9,47.7 67.9,44.5 	"/>
	<polygon class="st0" points="72.3,44.5 75.6,44.5 75.6,47.7 72.3,47.7 72.3,44.5 	"/>
	<polygon class="st0" points="76.8,44.5 80,44.5 80,47.7 76.8,47.7 76.8,44.5 	"/>
	<polygon class="st0" points="81.3,44.5 84.5,44.5 84.5,47.7 81.3,47.7 81.3,44.5 	"/>
	<polygon class="st0" points="67.9,48.9 71.1,48.9 71.1,52.2 67.9,52.2 67.9,48.9 	"/>
	<polygon class="st0" points="72.3,48.9 75.6,48.9 75.6,52.2 72.3,52.2 72.3,48.9 	"/>
	<polygon class="st0" points="67.9,53.4 71.1,53.4 71.1,56.7 67.9,56.7 67.9,53.4 	"/>
	<g>
		<path class="st1" d="M29.1,26.9h1.2c0.9,0,1.7,0,2.3,0.5c0.6,0.4,0.9,1.1,0.9,2c0,0.9-0.3,1.6-0.9,2c-0.6,0.4-1.3,0.5-2.1,0.5
			h-1.4V26.9z M30.7,30.8c1,0,1.5-0.4,1.5-1.4c0-1-0.5-1.4-1.5-1.4h-0.2v2.7H30.7z"/>
		<path class="st1" d="M35.3,30.4c0,0.5,0.3,0.8,0.8,0.8c0.4,0,0.6-0.1,0.7-0.4l0.9,0.4c-0.2,0.5-0.8,0.8-1.6,0.8
			c-1.2,0-2-0.8-2-1.8c0-1,0.8-1.8,1.9-1.8c1.1,0,1.8,0.7,1.8,2v0.1H35.3z M36,29.1c-0.4,0-0.6,0.2-0.7,0.6h1.4
			C36.6,29.3,36.3,29.1,36,29.1z"/>
		<path class="st1" d="M42,30.2c0,0.5,0,0.9-0.4,1.3c-0.3,0.3-0.8,0.4-1.3,0.4c-0.6,0-1-0.1-1.4-0.4c-0.4-0.4-0.4-0.8-0.4-1.3v-1.7
			h1.1v1.8c0,0.5,0.1,0.8,0.6,0.8c0.5,0,0.6-0.3,0.6-0.8v-1.8H42V30.2z"/>
		<path class="st1" d="M43.1,29.3h-0.5v-0.8h0.5v-1h1.2v1h0.5v0.8h-0.5v2.5h-1.2V29.3z"/>
		<path class="st1" d="M45.2,30.7c0.4,0.3,0.8,0.5,1.2,0.5c0.3,0,0.5-0.1,0.5-0.3c0-0.3-0.3-0.3-0.7-0.4c-0.7-0.2-1-0.5-1-1
			c0-0.6,0.5-1.1,1.4-1.1c0.4,0,0.9,0.1,1.4,0.3l-0.2,0.8c-0.3-0.2-0.7-0.3-1-0.3c-0.3,0-0.4,0.1-0.4,0.2c0,0.2,0.3,0.2,0.8,0.4
			c0.6,0.2,1,0.5,1,1c0,0.7-0.6,1.2-1.5,1.2c-0.6,0-1.1-0.1-1.5-0.4L45.2,30.7z"/>
		<path class="st1" d="M50.4,29.3c-0.5,0-0.8,0.3-0.8,0.9c0,0.5,0.3,0.9,0.8,0.9c0.3,0,0.4-0.1,0.6-0.3v1c-0.3,0.2-0.6,0.2-0.9,0.2
			c-1,0-1.8-0.7-1.8-1.8c0-1.1,0.7-1.8,1.8-1.8c0.3,0,0.6,0.1,0.9,0.2v1C50.9,29.4,50.7,29.3,50.4,29.3z"/>
		<path class="st1" d="M51.8,26.7H53v1.8c0,0.2,0,0.4,0,0.6c0.3-0.5,0.7-0.7,1.3-0.7c0.4,0,0.8,0.2,1,0.4c0.2,0.3,0.2,0.7,0.2,1.1
			v1.9h-1.2V30c0-0.5-0.2-0.8-0.6-0.8c-0.5,0-0.7,0.4-0.7,1.2v1.4h-1.2V26.7z"/>
		<path class="st1" d="M57.3,30.4c0,0.5,0.3,0.8,0.8,0.8c0.4,0,0.6-0.1,0.7-0.4l0.9,0.4c-0.2,0.5-0.8,0.8-1.6,0.8
			c-1.2,0-2-0.8-2-1.8c0-1,0.8-1.8,1.9-1.8c1.1,0,1.8,0.7,1.8,2v0.1H57.3z M58,29.1c-0.4,0-0.6,0.2-0.7,0.6h1.4
			C58.6,29.3,58.3,29.1,58,29.1z"/>
		<path class="st1" d="M60.5,28.5h1.1v0.8c0.2-0.6,0.6-0.9,1.2-0.9c0.1,0,0.2,0,0.3,0l-0.1,1.1c-0.1,0-0.3-0.1-0.4-0.1
			c-0.6,0-0.9,0.3-0.9,1v1.4h-1.2V28.5z"/>
	</g>
	<g>
		<path class="st1" d="M0,36.6h1.5c0.6,0,1.1,0,1.5,0.2c0.5,0.2,0.7,0.6,0.7,1.1c0,0.6-0.3,0.9-0.9,1c0.7,0.1,1.1,0.5,1.1,1.2
			c0,0.5-0.2,0.9-0.6,1.2c-0.4,0.2-1,0.2-1.8,0.2H0V36.6z M1.5,38.6c0.6,0,0.9-0.1,0.9-0.5c0-0.4-0.3-0.5-0.8-0.5H1.2v1H1.5z
			 M1.7,40.5c0.6,0,0.9-0.1,0.9-0.5c0-0.5-0.3-0.6-0.9-0.6H1.2v1.1H1.7z"/>
		<path class="st1" d="M8.1,39.9c0,0.5,0,0.9-0.4,1.3c-0.3,0.3-0.8,0.4-1.3,0.4c-0.6,0-1-0.1-1.4-0.4c-0.4-0.4-0.4-0.8-0.4-1.3v-1.7
			h1.1V40c0,0.5,0.1,0.8,0.6,0.8s0.6-0.3,0.6-0.8v-1.8h1.2V39.9z"/>
		<path class="st1" d="M8.9,38.1H10v0.7c0.3-0.6,0.7-0.8,1.3-0.8c0.4,0,0.8,0.2,1,0.4c0.2,0.3,0.2,0.7,0.2,1.1v1.9h-1.2v-1.8
			c0-0.5-0.2-0.8-0.6-0.8c-0.5,0-0.7,0.4-0.7,1.2v1.4H8.9V38.1z"/>
		<path class="st1" d="M17.1,41.5H16V41c-0.3,0.5-0.7,0.7-1.1,0.7c-0.9,0-1.6-0.7-1.6-1.8c0-1.1,0.6-1.8,1.5-1.8
			c0.6,0,0.9,0.2,1.2,0.7c0-0.2,0-0.4,0-0.6v-1.8h1.1V41.5z M15.2,39c-0.5,0-0.8,0.3-0.8,0.9c0,0.5,0.3,0.9,0.8,0.9
			c0.5,0,0.8-0.3,0.8-0.9C16,39.3,15.7,39,15.2,39z"/>
		<path class="st1" d="M18.9,40.1c0,0.5,0.3,0.8,0.8,0.8c0.4,0,0.6-0.1,0.7-0.4l0.9,0.4c-0.2,0.5-0.8,0.8-1.6,0.8
			c-1.2,0-2-0.8-2-1.8c0-1,0.8-1.8,1.9-1.8c1.1,0,1.8,0.7,1.8,2v0.1H18.9z M19.6,38.8c-0.4,0-0.6,0.2-0.7,0.6h1.4
			C20.3,39,20,38.8,19.6,38.8z"/>
		<path class="st1" d="M22.1,40.3c0.4,0.3,0.8,0.5,1.2,0.5c0.3,0,0.5-0.1,0.5-0.3c0-0.3-0.3-0.3-0.7-0.4c-0.7-0.2-1-0.5-1-1
			c0-0.6,0.5-1.1,1.4-1.1c0.4,0,0.9,0.1,1.4,0.3l-0.2,0.8c-0.3-0.2-0.7-0.3-1-0.3c-0.3,0-0.4,0.1-0.4,0.2c0,0.2,0.3,0.2,0.8,0.4
			c0.6,0.2,1,0.5,1,1c0,0.7-0.6,1.2-1.5,1.2c-0.6,0-1.1-0.1-1.5-0.4L22.1,40.3z"/>
		<path class="st1" d="M26.2,36.4c0.4,0,0.7,0.3,0.7,0.7c0,0.4-0.3,0.7-0.7,0.7c-0.4,0-0.7-0.3-0.7-0.7
			C25.5,36.7,25.8,36.4,26.2,36.4z M25.6,38.1h1.2V43h-1.2V38.1z"/>
		<path class="st1" d="M31.2,39.9c0,0.5,0,0.9-0.4,1.3c-0.3,0.3-0.7,0.4-1.3,0.4c-0.6,0-1-0.1-1.4-0.4c-0.4-0.4-0.4-0.8-0.4-1.3
			v-1.7h1.1V40c0,0.5,0.1,0.8,0.6,0.8c0.5,0,0.6-0.3,0.6-0.8v-1.8h1.2V39.9z"/>
		<path class="st1" d="M35.7,41.5c0,1-0.6,1.5-1.9,1.5c-1.1,0-1.7-0.4-1.7-1.1h1.2c0,0.2,0.2,0.3,0.6,0.3c0.6,0,0.7-0.3,0.7-1V41
			c-0.3,0.4-0.6,0.6-1.2,0.6c-0.9,0-1.5-0.7-1.5-1.8c0-1.1,0.6-1.8,1.6-1.8c0.5,0,0.9,0.2,1.1,0.7v-0.5h1.1V41.5z M33.8,39
			c-0.5,0-0.8,0.3-0.8,0.8c0,0.5,0.3,0.8,0.8,0.8c0.5,0,0.8-0.3,0.8-0.8C34.6,39.3,34.3,39,33.8,39z"/>
		<path class="st1" d="M37.5,40.1c0,0.5,0.3,0.8,0.8,0.8c0.4,0,0.6-0.1,0.7-0.4l0.9,0.4c-0.2,0.5-0.8,0.8-1.6,0.8
			c-1.2,0-2-0.8-2-1.8c0-1,0.8-1.8,1.9-1.8c1.1,0,1.8,0.7,1.8,2v0.1H37.5z M38.2,38.8c-0.4,0-0.6,0.2-0.7,0.6h1.4
			C38.9,39,38.6,38.8,38.2,38.8z"/>
		<path class="st1" d="M40.8,38.1h1.1v0.7c0.3-0.6,0.7-0.8,1.3-0.8c0.4,0,0.8,0.2,1,0.4c0.2,0.3,0.2,0.7,0.2,1.1v1.9h-1.2v-1.8
			c0-0.5-0.2-0.8-0.6-0.8c-0.5,0-0.7,0.4-0.7,1.2v1.4h-1.2V38.1z"/>
		<path class="st1" d="M48.9,41.5h-1.1V41c-0.3,0.5-0.7,0.7-1.1,0.7c-0.9,0-1.6-0.7-1.6-1.8c0-1.1,0.6-1.8,1.5-1.8
			c0.6,0,0.9,0.2,1.2,0.7c0-0.2,0-0.4,0-0.6v-1.8h1.1V41.5z M47.1,39c-0.5,0-0.8,0.3-0.8,0.9c0,0.5,0.3,0.9,0.8,0.9
			c0.5,0,0.8-0.3,0.8-0.9C47.9,39.3,47.6,39,47.1,39z"/>
		<path class="st1" d="M49.8,38.1H51v0.8c0.2-0.6,0.6-0.9,1.2-0.9c0.1,0,0.2,0,0.3,0l-0.1,1.1c-0.1,0-0.3-0.1-0.4-0.1
			c-0.6,0-0.9,0.3-0.9,1v1.4h-1.2V38.1z"/>
		<path class="st1" d="M53.6,36.4c0.4,0,0.7,0.3,0.7,0.7c0,0.4-0.3,0.7-0.7,0.7c-0.4,0-0.7-0.3-0.7-0.7
			C52.9,36.7,53.2,36.4,53.6,36.4z M53,38.1h1.2v3.4H53V38.1z"/>
		<path class="st1" d="M55.1,38.1h1.1v0.7c0.3-0.6,0.7-0.8,1.3-0.8c0.4,0,0.8,0.2,1,0.4c0.2,0.3,0.2,0.7,0.2,1.1v1.9h-1.2v-1.8
			c0-0.5-0.2-0.8-0.6-0.8c-0.5,0-0.7,0.4-0.7,1.2v1.4h-1.2V38.1z"/>
		<path class="st1" d="M63.2,41.5c0,1-0.6,1.5-1.9,1.5c-1.1,0-1.7-0.4-1.7-1.1h1.2c0,0.2,0.2,0.3,0.6,0.3c0.6,0,0.7-0.3,0.7-1V41
			c-0.3,0.4-0.6,0.6-1.2,0.6c-0.9,0-1.5-0.7-1.5-1.8c0-1.1,0.6-1.8,1.6-1.8c0.5,0,0.9,0.2,1.1,0.7v-0.5h1.1V41.5z M61.4,39
			c-0.5,0-0.8,0.3-0.8,0.8c0,0.5,0.3,0.8,0.8,0.8c0.5,0,0.8-0.3,0.8-0.8C62.2,39.3,61.9,39,61.4,39z"/>
	</g>
	<polygon class="st2" points="59.3,23.3 111.7,23.3 59.3,0 59.3,23.3 	"/>
</g>
</svg>
